<svg xmlns="http://www.w3.org/2000/svg" viewBox="0 0 74.7 9.4"><defs><style>.cls-1{fill:#1d1d1b;}.cls-2{fill:#e6332a;}</style></defs><title>Asset 1</title><g id="Layer_2" data-name="Layer 2"><g id="Layer_1-2" data-name="Layer 1"><path class="cls-1" d="M25.1,3.4V2.8c0-.8-.3-1.2-.7-1.2s-.8.4-.8,1V7c0,.5.2.8.7.8s.8-.7.8-1.3V5.7h2.1V6.8c0,1.5-.9,2.6-3,2.6s-2.7-1-2.7-2.8V2.9c0-2,.9-2.9,2.8-2.9s2.9.8,2.9,2.6v.8Z"/><path class="cls-1" d="M31,3.2h0l1.1-3h2.1L32,5.4V9.2H29.9V5.4L27.8.2h2.1Z"/><path class="cls-1" d="M34.8,9.2V.2h2.1V7.4h2.6V9.2Z"/><path class="cls-1" d="M40.3,9.2V.2h2.1v9Z"/><path class="cls-1" d="M45.3,4.2h0l.2,5h-2V.2h2.2l1.6,5h0l-.2-5h2v9H47Z"/><path class="cls-1" d="M50.2,9.2V.2h2.3a4.9,4.9,0,0,1,2.4.4,2.4,2.4,0,0,1,.9,2.3V6.8a2.3,2.3,0,0,1-.9,2,2.8,2.8,0,0,1-1.8.4Zm2.1-1.6c1.4.1,1.5-.5,1.4-1.7V3c0-1.1-.3-1.1-1.4-1.2Z"/><path class="cls-1" d="M56.9,9.2V.2h4.8V2H59V3.7h2.6V5.5H59V7.4h2.9V9.2Z"/><path class="cls-1" d="M65,9.2H62.8V.2h3.1c1.8,0,2.6.7,2.6,2.5s-.2,1.6-1.1,2h0a1.1,1.1,0,0,1,1,1.1c.1.8.1,2.3.2,2.9l.2.3H66.5c0-.2-.1-.3-.1-.5V6.6c-.1-.5-.3-.9-.8-.9H65ZM65,4h.7c.6,0,.7-.5.7-1.1S66,1.8,65,1.8Z"/><path class="cls-1" d="M71.2,6.2v.6c0,.6.1,1,.8,1s.7-.4.7-.9-.6-1-1.2-1.4a6.4,6.4,0,0,1-1.6-1.1,2.8,2.8,0,0,1-.6-1.8A2.4,2.4,0,0,1,72,0a2.5,2.5,0,0,1,2.6,2.9H72.7c0-.5,0-1.2-.7-1.3s-.7.2-.7.6.2.8.6,1.1a11.6,11.6,0,0,1,2,1.3,2.4,2.4,0,0,1,.8,2.1c0,1.8-1,2.7-2.8,2.7s-2.7-1.1-2.7-2.2v-1Z"/><rect class="cls-2" y="0.3" width="3.9" height="6.55"/><rect class="cls-2" x="4.5" y="2.7" width="3.9" height="6.03"/><rect class="cls-2" x="9" y="2" width="3.9" height="6.03"/><rect class="cls-2" x="13.5" y="2.4" width="3.9" height="4.4"/></g></g></svg>